<svg xmlns="http://www.w3.org/2000/svg" width="64" height="64" viewBox="0 0 64 64" fill="none">
  <defs>
    <linearGradient id="g" x1="10" y1="10" x2="56" y2="56" gradientUnits="userSpaceOnUse">
      <stop stop-color="#7C5CFF"/>
      <stop offset="1" stop-color="#00D4FF"/>
    </linearGradient>
  </defs>
  <rect x="10" y="10" width="44" height="44" rx="14" fill="rgba(255,255,255,0.04)" stroke="rgba(255,255,255,0.35)" stroke-width="1.5"/>
  <path d="M32 22c-6.2 0-11.2 5-11.2 11.2 0 4.9 3.2 9.1 7.6 10.6.6.1.8-.2.8-.6v-2.1c-3.1.7-3.8-1.3-3.8-1.3-.5-1.2-1.2-1.5-1.2-1.5-1-.7.1-.7.1-.7 1.1.1 1.7 1.1 1.7 1.1 1 .1 1.6-.7 2-.9-.9-.2-1.8-.8-1.8-2.7 0-.5.2-1.1.6-1.5-.1-.2-.3-.8.1-1.7 0 0 .5-.2 1.6.6.5-.1 1.2-.2 1.9-.2s1.4.1 1.9.2c1.1-.8 1.6-.6 1.6-.6.4.9.2 1.5.1 1.7.4.4.6 1 .6 1.5 0 1.9-.9 2.5-1.8 2.7.2.2.3.6.3 1.2v3.1c0 .4.2.7.8.6 4.4-1.5 7.6-5.7 7.6-10.6C43.2 27 38.2 22 32 22Z" fill="url(#g)"/>
</svg>
